<svg id="Layer_1" data-name="Layer 1" xmlns="http://www.w3.org/2000/svg" xmlns:xlink="http://www.w3.org/1999/xlink" viewBox="0 0 133.36 184.67"><defs><style>.cls-1{fill:url(#Degradado_sin_nombre_179);}.cls-2{fill:url(#Degradado_sin_nombre_179-2);}.cls-3{fill:#d8aa8b;}.cls-4{fill:#c1977a;}.cls-5{fill:#332214;}.cls-6{fill:#fff;stroke:#c34d27;stroke-miterlimit:10;stroke-width:1.93px;}.cls-7{fill:#d68572;}.cls-8{fill:#ef5180;}.cls-9{fill:url(#Degradado_sin_nombre_179-3);}.cls-10{fill:url(#Degradado_sin_nombre_179-4);}.cls-11{fill:url(#Degradado_sin_nombre_179-5);}.cls-12{fill:url(#Degradado_sin_nombre_179-6);}</style><linearGradient id="Degradado_sin_nombre_179" x1="75.54" y1="4.11" x2="75.54" y2="45.28" gradientUnits="userSpaceOnUse"><stop offset="0.33" stop-color="#392012"/><stop offset="0.54" stop-color="#3c2112"/><stop offset="0.67" stop-color="#442614"/><stop offset="0.78" stop-color="#532e17"/><stop offset="0.87" stop-color="#673a1b"/><stop offset="0.96" stop-color="#82481f"/><stop offset="1" stop-color="#905022"/></linearGradient><linearGradient id="Degradado_sin_nombre_179-2" x1="67.4" y1="15.35" x2="67.4" y2="110.91" xlink:href="#Degradado_sin_nombre_179"/><linearGradient id="Degradado_sin_nombre_179-3" x1="34.54" y1="70.68" x2="34.54" y2="89.74" xlink:href="#Degradado_sin_nombre_179"/><linearGradient id="Degradado_sin_nombre_179-4" x1="233.61" y1="70.68" x2="233.61" y2="89.74" gradientTransform="matrix(-1, 0, 0, 1, 350.07, 0)" xlink:href="#Degradado_sin_nombre_179"/><linearGradient id="Degradado_sin_nombre_179-5" x1="75.5" y1="30.48" x2="75.5" y2="74.17" xlink:href="#Degradado_sin_nombre_179"/><linearGradient id="Degradado_sin_nombre_179-6" x1="45.87" y1="113.15" x2="45.87" y2="183.33" xlink:href="#Degradado_sin_nombre_179"/></defs><title>UserIconGirl_4</title><path class="cls-1" d="M95.91,27.69c0,11.25-9.12,17.36-20.36,17.36S55.18,38.94,55.18,27.69,64.3,4.33,75.54,4.33,95.91,16.45,95.91,27.69Z" transform="translate(-8.82 -4.33)"/><circle class="cls-2" cx="67.4" cy="63.12" r="47.26"/><path class="cls-3" d="M130.59,163.89a26.3,26.3,0,0,0-8.57-4.47l-28.92-9h0a5.52,5.52,0,0,1-3.59-4.67c-1-6-.92-21.93-.89-24.52a.36.36,0,0,0-.37-.36H62.74a.36.36,0,0,0-.37.36c0,2.56.13,18.17-.89,24.52a5.48,5.48,0,0,1-3.59,4.67h0l-29,9a25.24,25.24,0,0,0-7.48,3.68c-11.76,8.65-12.1,22.82-12.59,25.45a.36.36,0,0,0,.36.43H141.81a.36.36,0,0,0,.36-.43C141.7,186,141.53,172.59,130.59,163.89Z" transform="translate(-8.82 -4.33)"/><path class="cls-3" d="M130.59,163.89a26.3,26.3,0,0,0-8.57-4.47l-28.92-9h0a5.52,5.52,0,0,1-3.59-4.67c-1-6-.92-21.93-.89-24.52a.36.36,0,0,0-.37-.36H62.74a.36.36,0,0,0-.37.36c0,2.56.13,18.17-.89,24.52a5.48,5.48,0,0,1-3.59,4.67h0l-29,9a25.24,25.24,0,0,0-7.48,3.68c-11.76,8.65-12.1,22.82-12.59,25.45a.36.36,0,0,0,.36.43H141.81a.36.36,0,0,0,.36-.43C141.7,186,141.53,172.59,130.59,163.89Z" transform="translate(-8.82 -4.33)"/><path class="cls-4" d="M88.69,134.57c-.12-5.43-.08-10.59-.07-12a.36.36,0,0,0-.37-.36H62.74a.36.36,0,0,0-.37.36c0,1.38,0,6.52-.08,12A40.84,40.84,0,0,0,88.69,134.57Z" transform="translate(-8.82 -4.33)"/><path class="cls-3" d="M44.74,88.22c2.3,5.45,1,14-2.92,15.62s-8.94-4.21-11.23-9.66-1-11.2,2.92-12.85S42.45,82.77,44.74,88.22Z" transform="translate(-8.82 -4.33)"/><path class="cls-3" d="M106.26,88.22c-2.3,5.45-1,14,2.92,15.62s8.94-4.21,11.23-9.66,1-11.2-2.92-12.85S108.55,82.77,106.26,88.22Z" transform="translate(-8.82 -4.33)"/><path class="cls-3" d="M75.5,34.38C36.37,32.85,35.8,70.18,36.39,82.45c.42,8.91,3.92,21.86,5.81,28.29a22,22,0,0,0,5.86,9.79c10.21,9.75,27.44,13.06,27.44,13.06s17.23-3.31,27.44-13.06a22,22,0,0,0,5.86-9.79c1.89-6.43,5.39-19.38,5.81-28.29C115.2,70.18,114.63,32.85,75.5,34.38Z" transform="translate(-8.82 -4.33)"/><ellipse class="cls-5" cx="46.24" cy="81.25" rx="5.09" ry="6"/><ellipse class="cls-5" cx="85.57" cy="81.25" rx="5.09" ry="6"/><path class="cls-6" d="M61.57,110.19a15.28,15.28,0,0,0,27.86,0Z" transform="translate(-8.82 -4.33)"/><circle class="cls-7" cx="40.58" cy="95.66" r="5.67"/><circle class="cls-7" cx="90.66" cy="95.66" r="5.67"/><path class="cls-8" d="M10.55,179.26a60.26,60.26,0,0,0-1.72,9.31.36.36,0,0,0,.36.43H141.81a.36.36,0,0,0,.36-.43c-.47-2.56-.65-16-11.58-24.68a26.3,26.3,0,0,0-8.57-4.47l-1.21-.38a147.81,147.81,0,0,1-43.39,17.8C58.56,181.29,35.18,181.92,10.55,179.26Z" transform="translate(-8.82 -4.33)"/><path class="cls-9" d="M38.67,96.49q.24-12.9.48-25.8c.07-4.08,1.07-12.19-5.79-10.13-5.64,1.7-3,11-2.2,15.24A64,64,0,0,0,34,86.47C34.92,89,38.71,94,38.67,96.49Z" transform="translate(-8.82 -4.33)"/><path class="cls-10" d="M112.33,96.49q-.24-12.9-.48-25.8c-.07-4.08-1.07-12.19,5.79-10.13,5.64,1.7,3,11,2.2,15.24A64,64,0,0,1,117,86.47C116.08,89,112.29,94,112.33,96.49Z" transform="translate(-8.82 -4.33)"/><path class="cls-11" d="M119.18,59.22c0-13.88-18.45-28.51-43.68-28.51S31.82,45.34,31.82,59.22c0,3.6-.62,6,1.85,9.1,0,0,16.3,5.6,42.72,5.6,23.7,0,40.94-5.6,40.94-5.6C119.8,65.23,119.18,62.82,119.18,59.22Z" transform="translate(-8.82 -4.33)"/><path class="cls-12" d="M47.32,129.42c-4.86,6.56-13,9.47-18.61,15.24a26.74,26.74,0,0,0,.94,38.27c-1.55-5,2.36-10.21,7-12.59s10-2.91,14.93-4.69a31.06,31.06,0,0,0,18-17.41c1.12-2.79,1.39-9.36.54-16-5.25-1.57-13.37-4.6-19.76-9.68C49.43,125.12,48.56,127.75,47.32,129.42Z" transform="translate(-8.82 -4.33)"/></svg>