<svg id="Layer_1" data-name="Layer 1" xmlns="http://www.w3.org/2000/svg" xmlns:xlink="http://www.w3.org/1999/xlink" viewBox="0 0 133.36 166.36"><defs><style>.cls-1{fill:#f8d4b4;}.cls-2{fill:#598193;}.cls-3{fill:#f04b34;}.cls-4{fill:#f2b78b;}.cls-5{fill:#ed9e85;}.cls-6{fill:#332214;}.cls-7{fill:#fff;stroke:#f37f81;stroke-miterlimit:10;stroke-width:1.38px;}.cls-8{fill:url(#Degradado_sin_nombre_170);}</style><linearGradient id="Degradado_sin_nombre_170" x1="86.06" y1="57.54" x2="55.98" y2="17.05" gradientUnits="userSpaceOnUse"><stop offset="0" stop-color="#f04b34"/><stop offset="1" stop-color="#99362a"/></linearGradient></defs><title>UserIconGirl_2</title><path class="cls-1" d="M44.34,67.9c2.3,5.45,1,14-2.92,15.62s-8.94-4.21-11.23-9.66-1-11.2,2.92-12.85S42,62.44,44.34,67.9Z" transform="translate(-7.82 -2.32)"/><path class="cls-1" d="M105.85,67.9c-2.3,5.45-1,14,2.92,15.62s8.94-4.21,11.23-9.66,1-11.2-2.92-12.85S108.15,62.44,105.85,67.9Z" transform="translate(-7.82 -2.32)"/><path class="cls-1" d="M129.59,143.57A26.3,26.3,0,0,0,121,139.1l-28.92-9h0a5.52,5.52,0,0,1-3.59-4.67c-1-6-.92-21.93-.89-24.52a.36.36,0,0,0-.37-.36H61.74a.36.36,0,0,0-.37.36c0,2.56.13,18.17-.89,24.52a5.48,5.48,0,0,1-3.59,4.67h0l-29,9a25.24,25.24,0,0,0-7.48,3.68c-11.76,8.65-12.1,22.82-12.59,25.45a.36.36,0,0,0,.36.43H140.81a.36.36,0,0,0,.36-.43C140.7,165.69,140.53,152.27,129.59,143.57Z" transform="translate(-7.82 -2.32)"/><path class="cls-1" d="M54.83,153.95C66,157.17,72,162.68,75.08,166.74c3.08-4.06,9.1-9.61,20.28-12.84,13.91-4,17.88-12.52,19-16.88l-22.27-6.94a5.52,5.52,0,0,1-3.59-4.67c-1-6-.92-21.93-.89-24.52a.36.36,0,0,0-.37-.36H61.74a.36.36,0,0,0-.37.36c0,2.56.13,18.17-.89,24.52a5.48,5.48,0,0,1-3.59,4.67l-21.17,6.6C36.72,140.91,40.5,149.81,54.83,153.95Z" transform="translate(-7.82 -2.32)"/><path class="cls-2" d="M129.59,143.57A26.3,26.3,0,0,0,121,139.1l-2.48-.77v30.06H31.64V138l-3.75,1.17a25.24,25.24,0,0,0-7.48,3.68c-11.76,8.65-12.1,22.82-12.59,25.45a.36.36,0,0,0,.36.43H140.81a.36.36,0,0,0,.36-.43C140.7,165.69,140.53,152.27,129.59,143.57Z" transform="translate(-7.82 -2.32)"/><path class="cls-3" d="M35.7,136.58l-4.06,1.26V138l4.08-1.27Z" transform="translate(-7.82 -2.32)"/><path class="cls-2" d="M75.1,168.39h43.45V138.32l-4.17-1.3c-1.13,4.36-5.1,12.87-19,16.88-11.18,3.23-17.2,8.77-20.28,12.84-3.09-4.06-9.11-9.58-20.25-12.8-14.33-4.14-18.11-13-19.11-17.27L31.64,138v30.43Z" transform="translate(-7.82 -2.32)"/><path class="cls-4" d="M87.69,114.25c-.12-5.43-.08-10.59-.07-12a.36.36,0,0,0-.37-.36H61.74a.36.36,0,0,0-.37.36c0,1.38,0,6.52-.08,12A40.84,40.84,0,0,0,87.69,114.25Z" transform="translate(-7.82 -2.32)"/><path class="cls-1" d="M74.5,14.06C35.37,12.53,34.8,49.85,35.39,62.13,35.81,71,39.31,84,41.2,90.42a22,22,0,0,0,5.86,9.79c10.21,9.75,27.44,13.06,27.44,13.06s17.23-3.31,27.44-13.06a22,22,0,0,0,5.86-9.79c1.89-6.43,5.39-19.38,5.81-28.29C114.18,50.29,124.72,12.09,74.5,14.06Z" transform="translate(-7.82 -2.32)"/><circle class="cls-5" cx="42.23" cy="77.34" r="5.67"/><circle class="cls-5" cx="92.32" cy="77.34" r="5.67"/><ellipse class="cls-6" cx="47.61" cy="62.69" rx="5.09" ry="6"/><ellipse class="cls-6" cx="86.94" cy="62.69" rx="5.09" ry="6"/><polygon class="cls-6" points="88.14 61.82 94.26 60.08 91.89 63.29 88.14 61.82"/><polygon class="cls-6" points="46.41 61.82 40.29 60.08 42.66 63.29 46.41 61.82"/><path class="cls-7" d="M65.1,91.15a11,11,0,0,0,20,0Z" transform="translate(-7.82 -2.32)"/><path class="cls-8" d="M118.61,35.61a29.85,29.85,0,0,0-7-18.14C105.57,10.22,96,4.86,85.31,2.8c-9.88-1.91-19.38,2-24.24,8.77A4.2,4.2,0,0,0,60,11c-6.38-1.95-13.38.09-18.58,5.39S30.53,30.21,30.53,38.95c0,.88,0,1.73,0,2.54,1.57,5.34,2.88,10.78,4.56,16a101.18,101.18,0,0,0,4.5,12.08c.13-.19.25-.39.37-.6l0-.29a24.55,24.55,0,0,1-.76-9.49c-.05-10.2,2.67-20.7,12.64-24a32.55,32.55,0,0,0,7.79-5.33C64.87,41.2,78.4,49.05,92,48.36a33.89,33.89,0,0,1-4.89-9.25c3.27,3,7.37,5.17,11.07,7.74C102.7,50,107,54.62,107,60.17a26.45,26.45,0,0,0,2.34-14.75c.16.66.29,1.31.37,1.91a62.64,62.64,0,0,1-1.58,24.52c3.82-6.06,7.52-12.3,9.58-19.16A33.37,33.37,0,0,0,118.61,35.61Z" transform="translate(-7.82 -2.32)"/></svg>