<svg id="Layer_1" data-name="Layer 1" xmlns="http://www.w3.org/2000/svg" xmlns:xlink="http://www.w3.org/1999/xlink" viewBox="0 0 158.19 162.24"><defs><style>.cls-1{fill:#b3dcbb;}.cls-2{fill:#e5b295;}.cls-3{fill:#d39e7a;}.cls-4{fill:#332214;}.cls-5{fill:#fff;}.cls-6{fill:#392012;}.cls-7{fill:url(#Degradado_sin_nombre_60);}</style><linearGradient id="Degradado_sin_nombre_60" x1="101.66" y1="17.97" x2="164.47" y2="17.97" gradientTransform="translate(-31.2 22.46) rotate(-4.93)" gradientUnits="userSpaceOnUse"><stop offset="0" stop-color="#392012"/><stop offset="0.71" stop-color="#905022"/><stop offset="1" stop-color="#a7742d"/></linearGradient></defs><title>UserIconBoy_2</title><path class="cls-1" d="M149.1,146a32.13,32.13,0,0,0-10-4.63l-3.8-1,.08,0-27-8.77h0a37.43,37.43,0,0,1-49.84,0h0l-27,8.77.08,0-3.9,1a31,31,0,0,0-8.71,3.81c-13.7,9-14.09,23.62-14.66,26.35a.39.39,0,0,0,.42.44H162.17a.39.39,0,0,0,.42-.44C162,168.91,161.84,155,149.1,146Z" transform="translate(-4.4 -9.76)"/><path class="cls-2" d="M108.42,131.57l-3-1a5.88,5.88,0,0,1-4.18-4.83c-1.22-6.25-1.07-21.27-1-24a.4.4,0,0,0-.43-.37H67.21a.4.4,0,0,0-.43.37c0,2.65.15,17.38-1,24a5.83,5.83,0,0,1-4.18,4.83l-3,1h0a37.43,37.43,0,0,0,49.84,0Z" transform="translate(-4.4 -9.76)"/><path class="cls-3" d="M100.61,120.12c-.14-7-.4-13.57-.38-15.35a.44.44,0,0,0-.43-.46H67.22a.44.44,0,0,0-.43.46c0,1.77-.26,8.38-.41,15.4,2.33,2.43,11,5.88,16.75,5.92C89.18,126.13,98.1,122,100.61,120.12Z" transform="translate(-4.4 -9.76)"/><path class="cls-2" d="M52.74,69.61c2.3,6.18,1,15.85-2.92,17.71s-8.94-4.77-11.23-11-1-12.71,2.92-14.57S50.45,63.43,52.74,69.61Z" transform="translate(-4.4 -9.76)"/><path class="cls-2" d="M114.26,69.61c-2.3,6.18-1,15.85,2.92,17.71s8.94-4.77,11.23-11,1-12.71-2.92-14.57S116.55,63.43,114.26,69.61Z" transform="translate(-4.4 -9.76)"/><path class="cls-2" d="M83.32,16.17C44.56,14.89,44,52,44.57,64.24A149.29,149.29,0,0,0,49,92.53c1.08,3.69,3,9.87,5.86,12.55,7.56,7.21,17,13.61,22.76,15.83a19.71,19.71,0,0,0,5.7.56,19.71,19.71,0,0,0,5.7-.56c5.81-2.22,15.2-8.61,22.76-15.83,2.81-2.68,4.78-8.86,5.86-12.55a149.29,149.29,0,0,0,4.43-28.29C122.66,52,122.09,14.89,83.32,16.17Z" transform="translate(-4.4 -9.76)"/><ellipse class="cls-4" cx="59.44" cy="56.23" rx="4.84" ry="5.5"/><ellipse class="cls-4" cx="98.76" cy="56.23" rx="4.84" ry="5.5"/><path class="cls-5" d="M73.5,95.25a11,11,0,0,0,20,0Z" transform="translate(-4.4 -9.76)"/><path class="cls-6" d="M73.89,86.16C72,87,70.6,88.56,69.06,89.87s-3.6,2.47-5.73,2.14a16.74,16.74,0,0,0,11.1,3.25c3.1-.2,9.49-2.72,9.24-6.13C83.4,85.57,77,84.82,73.89,86.16Z" transform="translate(-4.4 -9.76)"/><path class="cls-6" d="M93.11,86.16c1.94.83,3.29,2.39,4.83,3.71s3.6,2.47,5.73,2.14a16.74,16.74,0,0,1-11.1,3.25c-3.1-.2-9.49-2.72-9.24-6.13C83.6,85.57,90,84.82,93.11,86.16Z" transform="translate(-4.4 -9.76)"/><path class="cls-6" d="M121,31.93a5,5,0,0,0-.68-1.89c-6.08-9.78-19-16.93-35.74-16.28C67.81,13.1,54.91,20.25,48.83,30a5,5,0,0,0-.68,1.89C43.79,40.28,45.49,50,45.37,57a49.79,49.79,0,0,0,2.48,13.24C49,63.93,48.6,47.46,50,41.12c1.06-4.65,23.11-3.33,34.54-3.33s21.89,3,30.08-.23a76.49,76.49,0,0,1,4.45,13.57c1.44,6.34,1,12.8,2.19,19.09A49.78,49.78,0,0,0,123.78,57C123.66,50,125.36,40.28,121,31.93Z" transform="translate(-4.4 -9.76)"/><path class="cls-7" d="M90.32,47.63c11,4.32,23.58,1.45,33-7.32,6.25-5.79,11.12-15,9.93-24.44-2.67,6.91-9.82,9.16-16,7.6s-11.36-6-16.73-9.42C93.2,9.3,78,5.46,72.22,19.92,66.89,33.2,82.62,44.61,90.32,47.63Z" transform="translate(-4.4 -9.76)"/></svg>