<svg id="Layer_1" data-name="Layer 1" xmlns="http://www.w3.org/2000/svg" xmlns:xlink="http://www.w3.org/1999/xlink" viewBox="0 0 133.36 157.44"><defs><style>.cls-1{fill:url(#Degradado_sin_nombre_52);}.cls-2{fill:url(#Degradado_sin_nombre_52-2);}.cls-3{fill:#f8dac5;}.cls-4{fill:#91b64c;}.cls-5{fill:#f2bc9e;}.cls-6{fill:none;stroke:#d5925e;stroke-linecap:round;stroke-linejoin:round;stroke-width:1.38px;}.cls-7{fill:#332214;}.cls-8{fill:#f7caab;}.cls-9{fill:url(#Degradado_sin_nombre_159);}.cls-10{fill:url(#Degradado_sin_nombre_162);}.cls-11{fill:url(#Degradado_sin_nombre_161);}.cls-12{fill:url(#Degradado_sin_nombre_162-2);}</style><radialGradient id="Degradado_sin_nombre_52" cx="94.39" cy="60.78" r="44.42" gradientUnits="userSpaceOnUse"><stop offset="0.75" stop-color="#392012"/><stop offset="1" stop-color="#905022"/></radialGradient><radialGradient id="Degradado_sin_nombre_52-2" cx="54.45" cy="60.78" r="44.42" xlink:href="#Degradado_sin_nombre_52"/><linearGradient id="Degradado_sin_nombre_159" x1="74" y1="-13.31" x2="74" y2="64.06" xlink:href="#Degradado_sin_nombre_52"/><linearGradient id="Degradado_sin_nombre_162" x1="87.31" y1="111.52" x2="113.32" y2="111.52" gradientUnits="userSpaceOnUse"><stop offset="0" stop-color="#905022"/><stop offset="0.44" stop-color="#392012"/></linearGradient><linearGradient id="Degradado_sin_nombre_161" x1="0.89" y1="364.1" x2="21.22" y2="364.1" gradientTransform="translate(113.7 488.32) rotate(180)" gradientUnits="userSpaceOnUse"><stop offset="0.56" stop-color="#392012"/><stop offset="1" stop-color="#905022"/></linearGradient><linearGradient id="Degradado_sin_nombre_162-2" x1="87.99" y1="146.52" x2="109.37" y2="146.52" xlink:href="#Degradado_sin_nombre_162"/></defs><title>UserIconGirl_1</title><path class="cls-1" d="M65.73,7a38.81,38.81,0,0,1,36.33,5.87c7.5,5.65,13.39,14,17,23.5,6.79,18,4.85,40-5,56.05S87,118,70.06,116.55C85.81,81,85,40.16,65.73,7Z" transform="translate(-7.32 -4.82)"/><path class="cls-2" d="M83.1,7a38.81,38.81,0,0,0-36.33,5.87c-7.5,5.65-13.39,14-17,23.5-6.79,18-4.85,40,5,56.05s27.1,25.49,44,24.08C63,81,63.81,40.16,83.1,7Z" transform="translate(-7.32 -4.82)"/><path class="cls-3" d="M129.09,137.15a26.3,26.3,0,0,0-8.57-4.47l-28.92-9h0A5.52,5.52,0,0,1,88,119c-1-6-.92-21.93-.89-24.52a.36.36,0,0,0-.37-.36H61.24a.36.36,0,0,0-.37.36C60.9,97,61,112.64,60,119a5.48,5.48,0,0,1-3.59,4.67h0l-29,9a25.24,25.24,0,0,0-7.48,3.68C8.15,145,7.81,159.19,7.33,161.83a.36.36,0,0,0,.36.43H140.31a.36.36,0,0,0,.36-.43C140.2,159.27,140,145.85,129.09,137.15Z" transform="translate(-7.32 -4.82)"/><path class="cls-3" d="M129.09,137.15a26.3,26.3,0,0,0-8.57-4.47l-28.92-9h0A5.52,5.52,0,0,1,88,119c-1-6-.92-21.93-.89-24.52a.36.36,0,0,0-.37-.36H61.24a.36.36,0,0,0-.37.36C60.9,97,61,112.64,60,119a5.48,5.48,0,0,1-3.59,4.67h0l-29,9a25.24,25.24,0,0,0-7.48,3.68C8.15,145,7.81,159.19,7.33,161.83a.36.36,0,0,0,.36.43H140.31a.36.36,0,0,0,.36-.43C140.2,159.27,140,145.85,129.09,137.15Z" transform="translate(-7.32 -4.82)"/><path class="cls-3" d="M129.09,137.15a26.31,26.31,0,0,0-8.57-4.47l-3.2-1-25.72-8A5.52,5.52,0,0,1,88,119c-1-6-.92-21.93-.89-24.52a.36.36,0,0,0-.37-.36H61.24a.36.36,0,0,0-.37.36C60.9,97,61,112.64,60,119a5.48,5.48,0,0,1-3.59,4.67l-25.72,8-3.28,1a25.24,25.24,0,0,0-7.48,3.68C8.15,145,7.81,159.19,7.33,161.83a.36.36,0,0,0,.36.43H140.31a.36.36,0,0,0,.36-.43C140.2,159.27,140,145.85,129.09,137.15Z" transform="translate(-7.32 -4.82)"/><path class="cls-4" d="M114.68,130.45c-1,4.21-4.72,13.17-19.12,17.33l-.47.14a69.69,69.69,0,0,1-39.73,0l-.33-.1c-14.44-4.17-18.17-13.18-19.13-17.37l-4.06,1.26v30.54h86.91V131.72Z" transform="translate(-7.32 -4.82)"/><path class="cls-5" d="M87.19,107.83c-.12-5.43-.08-10.59-.07-12a.36.36,0,0,0-.37-.36H61.24a.36.36,0,0,0-.37.36c0,1.38,0,6.52-.08,12A40.84,40.84,0,0,0,87.19,107.83Z" transform="translate(-7.32 -4.82)"/><path class="cls-3" d="M43.24,61.48c2.3,5.45,1,14-2.92,15.62s-8.94-4.21-11.23-9.66-1-11.2,2.92-12.85S40.95,56,43.24,61.48Z" transform="translate(-7.32 -4.82)"/><path class="cls-3" d="M104.76,61.48c-2.3,5.45-1,14,2.92,15.62s8.94-4.21,11.23-9.66,1-11.2-2.92-12.85S107.05,56,104.76,61.48Z" transform="translate(-7.32 -4.82)"/><path class="cls-3" d="M74,8.64C34.87,7.11,34.3,44.44,34.89,56.71c.42,8.91,3.92,21.86,5.81,28.29a22,22,0,0,0,5.86,9.79C56.77,104.53,74,107.84,74,107.84s17.23-3.31,27.44-13.06A22,22,0,0,0,107.3,85c1.89-6.43,5.39-19.38,5.81-28.29C113.7,44.44,113.13,7.11,74,8.64Z" transform="translate(-7.32 -4.82)"/><path class="cls-6" d="M66.23,86.65c1.34,1.9,4.31,3.23,7.77,3.23s6.43-1.33,7.77-3.23" transform="translate(-7.32 -4.82)"/><ellipse class="cls-7" cx="46.24" cy="54.02" rx="5.09" ry="6"/><ellipse class="cls-7" cx="85.57" cy="54.02" rx="5.09" ry="6"/><circle class="cls-8" cx="40.58" cy="68.43" r="5.67"/><circle class="cls-8" cx="90.66" cy="68.43" r="5.67"/><polygon class="cls-7" points="86.77 53.16 92.89 51.42 90.52 54.63 86.77 53.16"/><polygon class="cls-7" points="45.04 53.16 38.92 51.42 41.29 54.63 45.04 53.16"/><path class="cls-9" d="M74,5.51C60.11.79,20.59,20.45,31.44,52.78c.39,0,4.7,19,11.7,25.44-3.74-4.4-4.6-10.67-3.66-16.37a49.68,49.68,0,0,1,4-12.17C58.3,42.2,69.35,23.51,74,19.35c4.41,4,16.86,21,29.92,29.1a53.23,53.23,0,0,1,4.6,13.39c.94,5.7.08,12-3.66,16.37,7-6.42,11.31-25.44,11.7-25.44C127.41,20.45,87.88.79,74,5.51Z" transform="translate(-7.32 -4.82)"/><path class="cls-10" d="M102.73,117.68c2.76-3.57,7.17-5.76,9.33-9.73a10.75,10.75,0,0,0,.5-9.07,10.34,10.34,0,0,0-1.13-2.05,18.49,18.49,0,0,0-21,27.91c2.68,4,8.75,2.59,9.92-2.08A13.48,13.48,0,0,1,102.73,117.68Z" transform="translate(-7.32 -4.82)"/><path class="cls-11" d="M100.76,119.41c-2.15,2.79-5.6,4.51-7.29,7.6a8.4,8.4,0,0,0-.39,7.09,8.07,8.07,0,0,0,.88,1.6,14.46,14.46,0,0,0,16.4-21.81c-2.1-3.12-6.84-2-7.75,1.62A10.54,10.54,0,0,1,100.76,119.41Z" transform="translate(-7.32 -4.82)"/><path class="cls-12" d="M94.88,135.1a8.63,8.63,0,0,0-3.63,6.71c-.07,2.31.8,4.54,1,6.85A11.71,11.71,0,0,1,88,158.47a15.7,15.7,0,0,0,21.37-14.94,11.65,11.65,0,0,0-1.82-6.31C104.88,133.29,98.75,132.41,94.88,135.1Z" transform="translate(-7.32 -4.82)"/></svg>