<svg id="Layer_1" data-name="Layer 1" xmlns="http://www.w3.org/2000/svg" xmlns:xlink="http://www.w3.org/1999/xlink" viewBox="0 0 158.19 178.22"><defs><style>.cls-1{fill:#c68459;}.cls-2{fill:#e0d94d;}.cls-3{fill:#a56b43;}.cls-4{fill:#392012;}.cls-5{fill:#332214;}.cls-6{fill:#fff;}.cls-7{fill:url(#Degradado_sin_nombre_60);}.cls-8{fill:#8ecdc7;}</style><linearGradient id="Degradado_sin_nombre_60" x1="83.5" y1="48.87" x2="83.5" y2="7.08" gradientUnits="userSpaceOnUse"><stop offset="0" stop-color="#392012"/><stop offset="0.71" stop-color="#905022"/><stop offset="1" stop-color="#a7742d"/></linearGradient></defs><title>UserIconBoy_1</title><path class="cls-1" d="M149.1,160a32.13,32.13,0,0,0-10-4.63l-3.8-1,.08,0-30-9.74a5.88,5.88,0,0,1-4.18-4.83c-1.22-6.25-1.07-21.27-1-24a.4.4,0,0,0-.43-.37H67.21a.4.4,0,0,0-.43.37c0,2.65.15,17.38-1,24a5.83,5.83,0,0,1-4.18,4.83l-30,9.74.08,0-3.9,1a31,31,0,0,0-8.71,3.81c-13.7,9-14.09,23.62-14.66,26.35a.39.39,0,0,0,.42.44H162.17a.39.39,0,0,0,.42-.44C162,182.91,161.84,169,149.1,160Z" transform="translate(-4.4 -7.78)"/><path class="cls-2" d="M149.1,160a32.13,32.13,0,0,0-10-4.63l-3.8-1,.08,0L109.63,146a74.11,74.11,0,0,1-52.26,0L31.6,154.34l.08,0-3.9,1a31,31,0,0,0-8.71,3.81c-13.7,9-14.09,23.62-14.66,26.35a.39.39,0,0,0,.42.44H162.17a.39.39,0,0,0,.42-.44C162,182.91,161.84,169,149.1,160Z" transform="translate(-4.4 -7.78)"/><path class="cls-3" d="M100.6,134.12c-.14-7-.4-13.57-.38-15.35a.44.44,0,0,0-.43-.46H67.21a.44.44,0,0,0-.43.46c0,1.77-.26,8.38-.41,15.4,2.33,2.43,11,5.88,16.76,5.92C89.17,140.13,98.09,136,100.6,134.12Z" transform="translate(-4.4 -7.78)"/><path class="cls-1" d="M52.74,83.61c2.3,6.18,1,15.85-2.92,17.71s-8.94-4.77-11.23-11-1-12.71,2.92-14.57S50.45,77.43,52.74,83.61Z" transform="translate(-4.4 -7.78)"/><path class="cls-1" d="M114.26,83.61c-2.3,6.18-1,15.85,2.92,17.71s8.94-4.77,11.23-11,1-12.71-2.92-14.57S116.55,77.43,114.26,83.61Z" transform="translate(-4.4 -7.78)"/><path class="cls-1" d="M83.14,28.79C44.38,27.51,43.81,64.63,44.39,76.86a149.29,149.29,0,0,0,4.43,28.29c1.08,3.69,3,9.87,5.86,12.55,7.56,7.21,17,13.61,22.76,15.83a19.7,19.7,0,0,0,5.7.56,19.7,19.7,0,0,0,5.7-.56c5.81-2.22,15.2-8.61,22.76-15.83,2.81-2.68,4.78-8.86,5.86-12.55a149.29,149.29,0,0,0,4.43-28.29C122.47,64.63,121.9,27.51,83.14,28.79Z" transform="translate(-4.4 -7.78)"/><path class="cls-4" d="M90.86,124.65c-3.76-.68-6.83-4.67-7.36-7-.54,2.33-3.6,6.32-7.36,7-9.32,1.69-18.59-6.31-25.38-14.65,1.09,3,2.52,6,4.28,7.7,7.56,7.21,17,13.61,22.76,15.83a19.7,19.7,0,0,0,5.7.56,19.7,19.7,0,0,0,5.7-.56c5.81-2.22,15.2-8.61,22.76-15.83,1.77-1.68,3.2-4.74,4.28-7.7C109.45,118.34,100.19,126.34,90.86,124.65Z" transform="translate(-4.4 -7.78)"/><ellipse class="cls-5" cx="58.66" cy="72.21" rx="4.84" ry="5.5"/><ellipse class="cls-5" cx="97.98" cy="72.21" rx="4.84" ry="5.5"/><path class="cls-6" d="M71.12,106.37c2.14,5.3,6.87,9,12.38,9s10.25-3.7,12.38-9Z" transform="translate(-4.4 -7.78)"/><path class="cls-4" d="M49,65.29a75.82,75.82,0,0,1,8-20.71A4.91,4.91,0,0,0,51.68,43c-5.91,9-7.25,20.28-7.39,28.19a49.78,49.78,0,0,0,2.48,13.24C47.93,78.09,47.52,71.63,49,65.29Z" transform="translate(-4.4 -7.78)"/><path class="cls-4" d="M118,65.29a75.82,75.82,0,0,0-8-20.71,4.91,4.91,0,0,1,5.3-1.62c5.91,9,7.25,20.28,7.39,28.19a49.79,49.79,0,0,1-2.48,13.24C119.07,78.09,119.48,71.63,118,65.29Z" transform="translate(-4.4 -7.78)"/><path class="cls-7" d="M119.92,44.7a5,5,0,0,0-.68-1.89,30.14,30.14,0,0,0-5.58-6.56,14.06,14.06,0,0,0-2-6.63A54.06,54.06,0,0,0,88.41,7.78c-.07,5.28-4.22,9.67-8.77,12.34s-9.73,4.2-14.16,7.06a24.33,24.33,0,0,0-4.8,4.07,32.67,32.67,0,0,0-12.9,11.55,5,5,0,0,0-.68,1.89c-4.36,8.35-3.67,18-3.79,25.05.29,4.62,2.05,17.46,3.48,21.54C47.93,85,47.52,70.24,49,63.9a76.48,76.48,0,0,1,4.45-13.57c9.65-10.1,49.75-9.64,60.17,0A76.49,76.49,0,0,1,118,63.9c1.44,6.34,1,21.11,2.19,27.4,1.43-4.09,3.19-16.92,3.48-21.54C123.59,62.75,124.28,53.06,119.92,44.7Z" transform="translate(-4.4 -7.78)"/><path class="cls-8" d="M79,73c-7.09-8.64-33.8-2.51-33.83-2.52.49,2,.92,3.88,1.3,5.78,2,.21,2.1,4.66,2.3,6.29,1,7.88,6.23,13.68,17.32,13.4,11.12-.58,13.72-8.62,14.17-13.69A19.53,19.53,0,0,0,79,73Zm-1.27,9.67c-.57,7.06-4.9,11.19-11.91,11.53-.71,0-1.4,0-2.06,0-11,0-12.93-9.68-13.15-15.79a6.52,6.52,0,0,1,5.88-6.84c2-.2,4.31-.2,6.94-.2,8.25,0,11.84,2,12.8,3.55A14,14,0,0,1,77.76,82.68Z" transform="translate(-4.4 -7.78)"/><path class="cls-8" d="M86.85,82.28C87.31,87.34,89.91,95.39,101,96c11.09.27,16.36-5.53,17.32-13.4.2-1.63.31-6.09,2.3-6.29.39-1.9.81-3.83,1.3-5.78,0,0-26.74-6.12-33.83,2.52A19.53,19.53,0,0,0,86.85,82.28Zm4-7.34c1-1.58,4.55-3.55,12.79-3.55,2.64,0,4.92,0,6.94.2a6.52,6.52,0,0,1,5.88,6.84c-.22,6.11-2.11,15.77-13.15,15.79-.66,0-1.35,0-2.06,0-7-.34-11.34-4.47-11.91-11.53A14,14,0,0,1,90.88,74.94Z" transform="translate(-4.4 -7.78)"/><path class="cls-8" d="M88.37,79.79a8.47,8.47,0,0,0-5-1.43,7.33,7.33,0,0,0-4.61,1.43l-1.45-4H89.82Z" transform="translate(-4.4 -7.78)"/></svg>