<svg id="Layer_1" data-name="Layer 1" xmlns="http://www.w3.org/2000/svg" xmlns:xlink="http://www.w3.org/1999/xlink" viewBox="0 0 158.19 166.18"><defs><style>.cls-1{fill:url(#Degradado_sin_nombre_83);}.cls-2{fill:url(#Degradado_sin_nombre_83-2);}.cls-3{fill:#f7d9b5;}.cls-4{fill:#eebc8b;}.cls-5{fill:#332214;}.cls-6{fill:#c0d9e3;}.cls-7{fill:#c94431;}.cls-8{fill:#eaeaea;}.cls-9{fill:none;stroke:#d5925e;stroke-linecap:round;stroke-linejoin:round;stroke-width:1.78px;}.cls-10{fill:url(#Degradado_sin_nombre_83-3);}.cls-11{fill:url(#Degradado_sin_nombre_83-4);}</style><linearGradient id="Degradado_sin_nombre_83" x1="58.12" y1="112.28" x2="58.12" y2="77.17" gradientUnits="userSpaceOnUse"><stop offset="0.15" stop-color="#433b41"/><stop offset="1" stop-color="#676073"/></linearGradient><linearGradient id="Degradado_sin_nombre_83-2" x1="1010.98" y1="112.28" x2="1010.98" y2="77.17" gradientTransform="matrix(-1, 0, 0, 1, 1119.13, 0)" xlink:href="#Degradado_sin_nombre_83"/><linearGradient id="Degradado_sin_nombre_83-3" x1="114.21" y1="13.42" x2="114.21" y2="47.78" xlink:href="#Degradado_sin_nombre_83"/><linearGradient id="Degradado_sin_nombre_83-4" x1="75.81" y1="13.42" x2="75.81" y2="47.78" xlink:href="#Degradado_sin_nombre_83"/></defs><title>UserIconBoy_5</title><path class="cls-1" d="M55.26,22.43C31.47,40.08,39,65.68,42.49,87.16c.88,5.45,2.18,10.89,2,16.4s-2.15,11.29-6.56,14.6A19.87,19.87,0,0,0,54.35,113l-.68,10.49,10.78-4.32,4.44,12.54c8-5.66,9.49-16.82,9.44-26.63a176.34,176.34,0,0,0-17.1-74.66" transform="translate(-4.4 -9.82)"/><path class="cls-2" d="M111,22.43c23.79,17.65,16.25,43.25,12.77,64.73-.88,5.45-2.18,10.89-2,16.4s2.15,11.29,6.56,14.6A19.87,19.87,0,0,1,111.93,113l.68,10.49-10.78-4.32-4.44,12.54c-8-5.66-9.49-16.82-9.44-26.63A176.34,176.34,0,0,1,105,30.44" transform="translate(-4.4 -9.82)"/><path class="cls-3" d="M149.1,150a32.13,32.13,0,0,0-10-4.63l-3.8-1,.08,0-30-9.74a5.88,5.88,0,0,1-4.18-4.83c-1.22-6.25-1.07-21.27-1-24a.4.4,0,0,0-.43-.37H67.21a.4.4,0,0,0-.43.37c0,2.65.15,17.38-1,24a5.83,5.83,0,0,1-4.18,4.83l-30,9.74.08,0-3.9,1a31,31,0,0,0-8.71,3.81c-13.7,9-14.09,23.62-14.66,26.35a.39.39,0,0,0,.42.44H162.17a.39.39,0,0,0,.42-.44C162,172.91,161.84,159,149.1,150Z" transform="translate(-4.4 -9.82)"/><path class="cls-4" d="M100.6,124.12c-.14-7-.4-13.57-.38-15.35a.44.44,0,0,0-.43-.46H67.21a.44.44,0,0,0-.43.46c0,1.77-.26,8.38-.41,15.4,2.33,2.43,11,5.88,16.76,5.92C89.17,130.13,98.09,126,100.6,124.12Z" transform="translate(-4.4 -9.82)"/><path class="cls-3" d="M52.74,73.61c2.3,6.18,1,15.85-2.92,17.71s-8.94-4.77-11.23-11-1-12.71,2.92-14.57S50.45,67.43,52.74,73.61Z" transform="translate(-4.4 -9.82)"/><path class="cls-3" d="M114.26,73.61c-2.3,6.18-1,15.85,2.92,17.71s8.94-4.77,11.23-11,1-12.71-2.92-14.57S116.55,67.43,114.26,73.61Z" transform="translate(-4.4 -9.82)"/><path class="cls-3" d="M83.14,18.79C44.38,17.51,43.81,54.63,44.39,66.86a149.29,149.29,0,0,0,4.43,28.29c1.08,3.69,3,9.87,5.86,12.55,7.56,7.21,17,13.61,22.76,15.83a19.71,19.71,0,0,0,5.7.56,19.71,19.71,0,0,0,5.7-.56c5.81-2.22,15.2-8.61,22.76-15.83,2.81-2.68,4.78-8.86,5.86-12.55a149.29,149.29,0,0,0,4.43-28.29C122.47,54.63,121.9,17.51,83.14,18.79Z" transform="translate(-4.4 -9.82)"/><path class="cls-5" d="M63.9,64.85a5.14,5.14,0,1,1,0,10.27c-3,0-5.45-3.62-5.45-6.46S60.9,64.85,63.9,64.85Z" transform="translate(-4.4 -9.82)"/><path class="cls-5" d="M103,64.85c3,0,5.45,1,5.45,3.81S106,75.12,103,75.12a5.14,5.14,0,1,1,0-10.27Z" transform="translate(-4.4 -9.82)"/><path class="cls-6" d="M149.1,149.84a32.13,32.13,0,0,0-10-4.63l-3.8-1,.08,0-26.93-8.75-3-1a5.42,5.42,0,0,1-1.94-1,54.59,54.59,0,0,1-19.28,3.31c2.77,0,4.15,0,6.92,1.38-10.09,1.12-22,3.15-28.36-4.22a5.59,5.59,0,0,1-1.22.5l-3,1L31.6,144.18l.08,0-3.9,1A31,31,0,0,0,19.07,149C5.37,158,5,172.67,4.41,175.39a.39.39,0,0,0,.42.44H162.17a.39.39,0,0,0,.42-.44C162,172.74,161.84,158.85,149.1,149.84Z" transform="translate(-4.4 -9.82)"/><path class="cls-7" d="M77.34,150.74l-6.15-13.42H95.81l-6.15,13.42A7.11,7.11,0,0,1,77.34,150.74Z" transform="translate(-4.4 -9.82)"/><path class="cls-7" d="M89.31,155.66,95.46,176H70.84L77,155.66A7.11,7.11,0,0,1,89.31,155.66Z" transform="translate(-4.4 -9.82)"/><path class="cls-8" d="M65.29,128.09l-6.16,4.22,13.21,19.79L84.59,137S66.2,132.31,65.29,128.09Z" transform="translate(-4.4 -9.82)"/><path class="cls-8" d="M101.73,128.09l6.16,4.22L94.69,152.11,82.44,137S100.83,132.31,101.73,128.09Z" transform="translate(-4.4 -9.82)"/><path class="cls-9" d="M73.16,98.24c1.72,2.45,5.54,4.15,10,4.15s8.26-1.7,10-4.15" transform="translate(-4.4 -9.82)"/><path class="cls-10" d="M118.05,83.27a57.78,57.78,0,0,0-10.12-36c-1.93-2.78-4.12-5.42-5.45-8.53s-1.66-6.89.14-9.75c9.31-14.82,21,3.59,22.94,12C129,55.35,126.46,71.05,118.05,83.27Z" transform="translate(-4.4 -9.82)"/><path class="cls-11" d="M103,13.66c-6.22-3.57-14-4.37-21.34-3.55A50.79,50.79,0,0,0,50.87,25a41.24,41.24,0,0,0-11.6,29.64Q41.09,53,43,51.53a57.15,57.15,0,0,0,8,31.74c-.66-12.67,1.59-25.55,8.08-36,1.55-2.49,4.29-4.88,5.5-7.59.77-.25-4.5,7.59-4.45,18.6,0-1.15,12.15-8.34,13.71-9.68a90.27,90.27,0,0,0,10-10,76.5,76.5,0,0,0-4.38,8.2c-.82,1.77-3.63,13.28-4.78,13.76,8.66-3.65,36.4-17.75,37.61-30.1C112.94,23.88,109.25,17.24,103,13.66Z" transform="translate(-4.4 -9.82)"/></svg>