<svg id="Layer_1" data-name="Layer 1" xmlns="http://www.w3.org/2000/svg" xmlns:xlink="http://www.w3.org/1999/xlink" viewBox="0 0 133.36 166.2"><defs><style>.cls-1{fill:url(#Degradado_sin_nombre_158);}.cls-2{fill:#e5b295;}.cls-3{fill:#d39e7a;}.cls-4{fill:#332214;}.cls-11,.cls-5{fill:#fff;}.cls-5{stroke:#d67029;stroke-width:1.93px;}.cls-10,.cls-5,.cls-9{stroke-miterlimit:10;}.cls-6{fill:#e39f84;}.cls-7{fill:#fef490;}.cls-8{fill:#c0c1e1;}.cls-10,.cls-9{fill:none;}.cls-9{stroke:#fef490;stroke-width:2px;}.cls-10{stroke:#fff;}</style><linearGradient id="Degradado_sin_nombre_158" x1="73.79" y1="141.43" x2="73.79" y2="90.24" gradientUnits="userSpaceOnUse"><stop offset="0" stop-color="#392012"/><stop offset="1" stop-color="#905022"/></linearGradient></defs><title>UserIconGirl_5</title><path class="cls-1" d="M100.3,147.06c8.89,1.62,4.58,13,11.62,7.14s10.89-88,10.21-98.83-3.3-21.8-9.11-30.78C104.43,11.34,88.94,4.8,73.77,4.8S43.1,11.34,34.53,24.59c-5.81,9-8.43,19.92-9.11,30.78s7.32,93,14.36,98.83-1.42-5.52,7.47-7.14Z" transform="translate(-7.82 -4.8)"/><path class="cls-2" d="M74.5,155.85c12.8,0,24.68-6.78,34.48-18.33l-16.87-5.26a5.52,5.52,0,0,1-3.59-4.67c-1-6-.92-21.93-.89-24.52a.36.36,0,0,0-.37-.36H61.74a.36.36,0,0,0-.37.36c0,2.56.13,18.17-.89,24.52a5.48,5.48,0,0,1-3.59,4.67L40,137.51C49.82,149.07,61.7,155.85,74.5,155.85Z" transform="translate(-7.82 -4.8)"/><path class="cls-2" d="M7.83,170.42h0a.36.36,0,0,0,.2.39A.36.36,0,0,1,7.83,170.42Z" transform="translate(-7.82 -4.8)"/><path class="cls-3" d="M87.69,116.42c-.12-5.43-.08-10.59-.07-12a.36.36,0,0,0-.37-.36H61.74a.36.36,0,0,0-.37.36c0,1.38,0,6.52-.08,12A40.84,40.84,0,0,0,87.69,116.42Z" transform="translate(-7.82 -4.8)"/><path class="cls-2" d="M43.74,70.07c2.3,5.45,1,14-2.92,15.62S31.88,81.48,29.59,76s-1-11.2,2.92-12.85S41.45,64.62,43.74,70.07Z" transform="translate(-7.82 -4.8)"/><path class="cls-2" d="M105.26,70.07c-2.3,5.45-1,14,2.92,15.62s8.94-4.21,11.23-9.66,1-11.2-2.92-12.85S107.55,64.62,105.26,70.07Z" transform="translate(-7.82 -4.8)"/><path class="cls-2" d="M74.5,26.24C35.37,24.71,34.8,52,35.39,64.3c.42,8.91,3.92,21.86,5.81,28.29a22,22,0,0,0,5.86,9.79c10.21,9.75,27.44,13.06,27.44,13.06s17.23-3.31,27.44-13.06a22,22,0,0,0,5.86-9.79c1.89-6.43,5.39-19.38,5.81-28.29C114.2,52,113.63,24.71,74.5,26.24Z" transform="translate(-7.82 -4.8)"/><polygon class="cls-4" points="86.77 60.91 92.89 59.17 90.52 62.39 86.77 60.91"/><polygon class="cls-4" points="45.04 60.91 38.92 59.17 41.29 62.39 45.04 60.91"/><ellipse class="cls-4" cx="46.24" cy="62.63" rx="5.09" ry="6"/><ellipse class="cls-4" cx="85.57" cy="62.63" rx="5.09" ry="6"/><path class="cls-5" d="M60.57,92a15.28,15.28,0,0,0,27.86,0Z" transform="translate(-7.82 -4.8)"/><circle class="cls-6" cx="40.58" cy="77.04" r="5.67"/><circle class="cls-6" cx="90.66" cy="77.04" r="5.67"/><path class="cls-7" d="M74.69,16.62c-22.76,0-41.21,17.84-41.21,39.84,0,2.36,1.36,6.41,1.45,6.07C40,43,63,38.64,74.7,38.64s34.5,3.1,39.77,23.89c.09.34,1.42-3.71,1.42-6.07C115.9,34.46,97.45,16.62,74.69,16.62Z" transform="translate(-7.82 -4.8)"/><path class="cls-8" d="M60.49,127.54v.05a5.48,5.48,0,0,1-3.59,4.67l-29,9A25.24,25.24,0,0,0,20.41,145c-11.76,8.65-12.1,22.82-12.59,25.45a.36.36,0,0,0,.36.43H140.81a.36.36,0,0,0,.36-.43c-.47-2.56-.65-16-11.58-24.68a26.31,26.31,0,0,0-8.57-4.47l-28.92-9a5.52,5.52,0,0,1-3.59-4.67v-.05q-6.82.22-14,.22T60.49,127.54Z" transform="translate(-7.82 -4.8)"/><line class="cls-9" x1="66.68" y1="120.33" x2="66.68" y2="165.63"/><path class="cls-7" d="M74.5,125.13c-4.63,0-9.18-.21-13.66-.56-.1,1.12-.21,2.13-.35,3q6.82.22,14,.22t14-.22c-.14-.83-.26-1.84-.36-3C83.67,124.92,79.12,125.13,74.5,125.13Z" transform="translate(-7.82 -4.8)"/><path class="cls-10" d="M37.84,72.89A64.09,64.09,0,0,0,54.4,131.43c3.88,3.92,8.29,7.34,11.75,11.63s9,9.78,8.12,15.23" transform="translate(-7.82 -4.8)"/><path class="cls-10" d="M111.38,72.89a64.09,64.09,0,0,1-16.56,58.53c-3.88,3.92-8.29,7.34-11.75,11.63s-9,9.78-8.12,15.23" transform="translate(-7.82 -4.8)"/><line class="cls-10" x1="66.78" y1="151.22" x2="66.78" y2="166.2"/><path class="cls-11" d="M116.3,73.62a3.76,3.76,0,0,1-3.77,3.75c-2.08,0-2.77-1.68-2.77-3.75s.69-3.75,2.77-3.75A3.76,3.76,0,0,1,116.3,73.62Z" transform="translate(-7.82 -4.8)"/><path class="cls-11" d="M32.7,73.62a3.76,3.76,0,0,0,3.77,3.75c2.08,0,2.77-1.68,2.77-3.75s-.69-3.75-2.77-3.75A3.76,3.76,0,0,0,32.7,73.62Z" transform="translate(-7.82 -4.8)"/></svg>