<svg id="Layer_1" data-name="Layer 1" xmlns="http://www.w3.org/2000/svg" xmlns:xlink="http://www.w3.org/1999/xlink" viewBox="0 0 158.19 172.14"><defs><style>.cls-1{fill:#f8d4b4;}.cls-2{fill:#333490;}.cls-3{fill:#f2b78b;}.cls-4{fill:#332214;}.cls-5{fill:url(#Degradado_sin_nombre_29);}.cls-6{fill:url(#Degradado_sin_nombre_29-2);}.cls-7{fill:#fff;}</style><linearGradient id="Degradado_sin_nombre_29" x1="74.31" y1="7.42" x2="79.24" y2="30.1" gradientUnits="userSpaceOnUse"><stop offset="0.37" stop-color="#fff4d5"/><stop offset="1" stop-color="#f7d062"/></linearGradient><linearGradient id="Degradado_sin_nombre_29-2" x1="83.77" y1="-5.52" x2="87.71" y2="42.81" xlink:href="#Degradado_sin_nombre_29"/></defs><title>UserIconBoy_3</title><path class="cls-1" d="M149.1,146.57a32.13,32.13,0,0,0-10-4.63l-3.8-1,.08,0-30-9.74a5.88,5.88,0,0,1-4.18-4.83c-1.22-6.25-1.07-21.27-1-24a.4.4,0,0,0-.43-.37H67.21a.4.4,0,0,0-.43.37c0,2.65.15,17.38-1,24a5.83,5.83,0,0,1-4.18,4.83l-30,9.74.08,0-3.9,1a31,31,0,0,0-8.71,3.81C5.37,154.73,5,169.4,4.41,172.13a.39.39,0,0,0,.42.44H162.17a.39.39,0,0,0,.42-.44C162,169.48,161.84,155.58,149.1,146.57Z" transform="translate(-4.4 -0.43)"/><path class="cls-2" d="M149.1,146.57a32.13,32.13,0,0,0-10-4.63l-3.8-1,.08,0-25.77-8.38a74.11,74.11,0,0,1-52.26,0L31.6,140.91l.08,0-3.9,1a31,31,0,0,0-8.71,3.81C5.37,154.73,5,169.4,4.41,172.13a.39.39,0,0,0,.42.44H162.17a.39.39,0,0,0,.42-.44C162,169.48,161.84,155.58,149.1,146.57Z" transform="translate(-4.4 -0.43)"/><path class="cls-3" d="M100.6,120.7c-.14-7-.4-13.57-.38-15.35a.44.44,0,0,0-.43-.46H67.21a.44.44,0,0,0-.43.46c0,1.77-.26,8.38-.41,15.4,2.33,2.43,11,5.88,16.76,5.92C89.17,126.7,98.09,122.61,100.6,120.7Z" transform="translate(-4.4 -0.43)"/><path class="cls-1" d="M52.74,70.18c2.3,6.18,1,15.85-2.92,17.71s-8.94-4.77-11.23-11-1-12.71,2.92-14.57S50.45,64,52.74,70.18Z" transform="translate(-4.4 -0.43)"/><path class="cls-1" d="M114.26,70.18c-2.3,6.18-1,15.85,2.92,17.71s8.94-4.77,11.23-11,1-12.71-2.92-14.57S116.55,64,114.26,70.18Z" transform="translate(-4.4 -0.43)"/><path class="cls-1" d="M83.14,15.36C44.38,14.08,43.81,51.2,44.39,63.43a149.28,149.28,0,0,0,4.43,28.29c1.08,3.69,3,9.87,5.86,12.55,7.56,7.21,17,13.61,22.76,15.83a19.7,19.7,0,0,0,5.7.56,19.7,19.7,0,0,0,5.7-.56c5.81-2.22,15.2-8.61,22.76-15.83,2.81-2.68,4.78-8.86,5.86-12.55a149.29,149.29,0,0,0,4.43-28.29C122.47,51.2,121.9,14.08,83.14,15.36Z" transform="translate(-4.4 -0.43)"/><ellipse class="cls-4" cx="58.66" cy="66.13" rx="4.84" ry="5.5"/><ellipse class="cls-4" cx="97.98" cy="66.13" rx="4.84" ry="5.5"/><path class="cls-5" d="M120,31.5a5,5,0,0,0-.68-1.89c-6.08-9.78-19-16.93-35.74-16.28-16.77-.65-29.66,6.5-35.74,16.28a5,5,0,0,0-.68,1.89c-4.36,8.35-2.67,18-2.79,25.05a49.79,49.79,0,0,0,2.48,13.24C48,63.5,47.61,57,49,50.7A76.48,76.48,0,0,1,53.5,37.13c8.2,3.26,18.65,5.24,30.08,5.24s21.89-2,30.08-5.24a76.48,76.48,0,0,1,4.45,13.57c1.44,6.34,1,12.8,2.19,19.09a49.78,49.78,0,0,0,2.48-13.24C122.67,49.55,124.37,39.85,120,31.5Z" transform="translate(-4.4 -0.43)"/><path class="cls-6" d="M66.13,40.74c-9-3.54,1.45-18.37,3.15-20C76.38,14,88.59,12.33,90.57.43a33,33,0,0,1,20,22.27c1.11,4.32-2.89,14.78-6.51,17.4C104.11,40.09,82.88,47.3,66.13,40.74Z" transform="translate(-4.4 -0.43)"/><path class="cls-7" d="M73.5,95.21a11,11,0,0,0,20,0Z" transform="translate(-4.4 -0.43)"/></svg>