<svg id="Layer_1" data-name="Layer 1" xmlns="http://www.w3.org/2000/svg" xmlns:xlink="http://www.w3.org/1999/xlink" viewBox="0 0 147.36 190.47"><defs><style>.cls-1{fill:url(#Degradado_sin_nombre_177);}.cls-2{fill:#fef490;}.cls-3{fill:#c68459;}.cls-4{fill:#a56b43;}.cls-5{fill:#332214;}.cls-6{fill:#fff;stroke:#bd2726;stroke-miterlimit:10;stroke-width:1.71px;}.cls-7{fill:#d77360;}.cls-8{fill:url(#Degradado_sin_nombre_179);}.cls-9{fill:url(#Degradado_sin_nombre_179-2);}.cls-10{fill:url(#Degradado_sin_nombre_179-3);}</style><radialGradient id="Degradado_sin_nombre_177" cx="75.32" cy="77.82" r="72.99" gradientUnits="userSpaceOnUse"><stop offset="0.46" stop-color="#392012"/><stop offset="0.63" stop-color="#3c2112"/><stop offset="0.73" stop-color="#442614"/><stop offset="0.82" stop-color="#532e17"/><stop offset="0.9" stop-color="#673a1b"/><stop offset="0.97" stop-color="#82481f"/><stop offset="1" stop-color="#905022"/></radialGradient><linearGradient id="Degradado_sin_nombre_179" x1="34" y1="77.68" x2="34" y2="96.74" gradientUnits="userSpaceOnUse"><stop offset="0.33" stop-color="#392012"/><stop offset="0.54" stop-color="#3c2112"/><stop offset="0.67" stop-color="#442614"/><stop offset="0.78" stop-color="#532e17"/><stop offset="0.87" stop-color="#673a1b"/><stop offset="0.96" stop-color="#82481f"/><stop offset="1" stop-color="#905022"/></linearGradient><linearGradient id="Degradado_sin_nombre_179-2" x1="234.15" y1="77.68" x2="234.15" y2="96.74" gradientTransform="matrix(-1, 0, 0, 1, 350.07, 0)" xlink:href="#Degradado_sin_nombre_179"/><linearGradient id="Degradado_sin_nombre_179-3" x1="74.96" y1="32.96" x2="74.96" y2="75.16" xlink:href="#Degradado_sin_nombre_179"/></defs><title>UserIconGirl_3</title><path class="cls-1" d="M148.59,99.59A8.07,8.07,0,0,0,144.46,95c-.18-.09-.36-.16-.54-.24.05-.14.12-.28.16-.43a8.36,8.36,0,0,0,.87-4.12v-.8a11,11,0,0,0-1.55-5.58l-1.69-2.14a8.65,8.65,0,0,0,.83-.83,8.08,8.08,0,0,0,2.09-3.55,8.11,8.11,0,0,0,.77-4v-.8a10.68,10.68,0,0,0-1.6-5.38L142,64.88a11,11,0,0,0-1.34-1l.85-.61a8.87,8.87,0,0,0,2.76-6,6.54,6.54,0,0,0-.6-3.38,7.89,7.89,0,0,0-4.56-4.93,6.64,6.64,0,0,0-3.24-.85h-1a12.36,12.36,0,0,0,1.42-6.87c-.71-6.42-5.91-10-11.81-10.52,0-.34.1-.67.12-1,.34-6.74-5.28-13.6-12.28-13.6a14.5,14.5,0,0,0-5.32,1c-1.49-4.9-6.27-7.7-11.43-7.7a8.56,8.56,0,0,0-4.39,1.25l-.06-.13L89.72,8.53a9.23,9.23,0,0,0-6.2-3,6.91,6.91,0,0,0-3.59.59,6.79,6.79,0,0,0-3.09,1.76,6.94,6.94,0,0,0-1.52,1.81A6.94,6.94,0,0,0,73.8,7.92a6.79,6.79,0,0,0-3.09-1.76,6.91,6.91,0,0,0-3.59-.59,9.23,9.23,0,0,0-6.2,3l-1.35,1.94-.06.13a8.56,8.56,0,0,0-4.39-1.25c-5.16,0-9.94,2.8-11.43,7.7a14.5,14.5,0,0,0-5.32-1c-7,0-12.63,6.86-12.28,13.6,0,.35.07.69.12,1-5.9.5-11.1,4.1-11.81,10.52a12.36,12.36,0,0,0,1.42,6.87h-1a6.64,6.64,0,0,0-3.24.85,6.62,6.62,0,0,0-2.78,1.91,6.65,6.65,0,0,0-1.77,3,6.54,6.54,0,0,0-.6,3.38,8.87,8.87,0,0,0,2.76,6l.85.61a11,11,0,0,0-1.34,1L6.83,67.1a10.68,10.68,0,0,0-1.6,5.38v.8a8.11,8.11,0,0,0,.77,4A8.08,8.08,0,0,0,8.1,80.84a8.65,8.65,0,0,0,.83.83L7.23,83.81a11,11,0,0,0-1.55,5.58v.8a8.36,8.36,0,0,0,.87,4.12c0,.15.11.28.16.43-.18.07-.36.15-.54.24A8.07,8.07,0,0,0,2,99.59a8.19,8.19,0,0,0,.34,6l.8,1.59a8.33,8.33,0,0,0,4.62,4.13,6,6,0,0,0,2.52.39,5.53,5.53,0,0,0,.66,1.67,5.49,5.49,0,0,0,1.71,2.32,5.58,5.58,0,0,0,2.46,1.36,5.56,5.56,0,0,0,2.8.45l.65-.09a9,9,0,0,0-1.35,4.67v.8a6.84,6.84,0,0,0,.81,3.51A6.72,6.72,0,0,0,20,129.35a6.83,6.83,0,0,0,2.92,1.82,6.8,6.8,0,0,0,3.39.73l2.4-.33c.24-.07.47-.16.7-.24a7.76,7.76,0,0,0,.48,2.31,7.86,7.86,0,0,0,1.71,3.57,7.74,7.74,0,0,0,3.13,2.58,7.88,7.88,0,0,0,3.92,1.37l2.7-.05a10.62,10.62,0,0,0,2.21-.6,7,7,0,0,0,1.11,1.7,6.87,6.87,0,0,0,2.75,2.17,6.9,6.9,0,0,0,3.44,1.13l2.46-.09a9.15,9.15,0,0,0,3.11-1.16,12.09,12.09,0,0,0,10.79,5.85,11.85,11.85,0,0,0,8.11-2.87,11.85,11.85,0,0,0,8.11,2.87,12.09,12.09,0,0,0,10.79-5.85,9.15,9.15,0,0,0,3.11,1.16l2.46.09a6.9,6.9,0,0,0,3.44-1.13A6.87,6.87,0,0,0,106,142.2a7,7,0,0,0,1.11-1.7,10.62,10.62,0,0,0,2.21.6l2.7.05a7.88,7.88,0,0,0,3.92-1.37A7.74,7.74,0,0,0,119,137.2a7.86,7.86,0,0,0,1.71-3.57,7.76,7.76,0,0,0,.48-2.31c.23.08.46.18.7.24l2.4.33a10.11,10.11,0,0,0,6.32-2.55,6.72,6.72,0,0,0,1.93-2.95,6.84,6.84,0,0,0,.81-3.51v-.8a9,9,0,0,0-1.35-4.67l.65.09a8.26,8.26,0,0,0,5.26-1.81,9.17,9.17,0,0,0,2.37-4,6,6,0,0,0,2.52-.39,8.33,8.33,0,0,0,4.62-4.13l.8-1.59A8.19,8.19,0,0,0,148.59,99.59Z" transform="translate(-1.64 -5.53)"/><path class="cls-2" d="M28.71,166.44a25.24,25.24,0,0,0-7.48,3.68c-11.76,8.65-12.1,22.82-12.59,25.45A.36.36,0,0,0,9,196H33.64l4-32.35Z" transform="translate(-1.64 -5.53)"/><path class="cls-3" d="M75.32,188.42l32.09-9.09V161.92L92.93,157.4h0a5.52,5.52,0,0,1-3.59-4.67c-1-6-.92-21.93-.89-24.52a.36.36,0,0,0-.37-.36H62.56a.36.36,0,0,0-.37.36c0,2.56.13,18.17-.89,24.52a5.48,5.48,0,0,1-3.59,4.67l-14.48,4.52v17.41Z" transform="translate(-1.64 -5.53)"/><path class="cls-2" d="M130.42,170.89a26.3,26.3,0,0,0-8.57-4.47L113,163.65,117,196h24.63a.36.36,0,0,0,.36-.43C141.52,193,141.35,179.59,130.42,170.89Z" transform="translate(-1.64 -5.53)"/><polygon class="cls-2" points="105.77 156.39 105.77 173.81 73.68 182.89 41.59 173.81 41.59 156.39 36.03 158.12 32 190.47 73.35 190.47 73.68 190.47 74.01 190.47 115.36 190.47 111.33 158.12 105.77 156.39"/><path class="cls-4" d="M88.51,141.57c-.12-5.43-.08-10.59-.07-12a.36.36,0,0,0-.37-.36H62.56a.36.36,0,0,0-.37.36c0,1.38,0,6.52-.08,12A40.83,40.83,0,0,0,88.51,141.57Z" transform="translate(-1.64 -5.53)"/><path class="cls-3" d="M44.56,95.22c2.3,5.45,1,14-2.92,15.62s-8.94-4.21-11.23-9.66-1-11.2,2.92-12.85S42.27,89.77,44.56,95.22Z" transform="translate(-1.64 -5.53)"/><path class="cls-3" d="M106.08,95.22c-2.3,5.45-1,14,2.92,15.62s8.94-4.21,11.23-9.66,1-11.2-2.92-12.85S108.37,89.77,106.08,95.22Z" transform="translate(-1.64 -5.53)"/><path class="cls-3" d="M75.32,41.38c-39.13-1.53-39.7,35.79-39.11,48.07.42,8.91,3.92,21.86,5.81,28.29a22,22,0,0,0,5.86,9.79c10.21,9.75,27.44,13.06,27.44,13.06s17.23-3.31,27.44-13.06a22,22,0,0,0,5.86-9.79c1.89-6.43,5.39-19.38,5.81-28.29C115,77.18,114.45,39.85,75.32,41.38Z" transform="translate(-1.64 -5.53)"/><ellipse class="cls-5" cx="53.24" cy="87.05" rx="5.09" ry="6.5"/><ellipse class="cls-5" cx="92.57" cy="87.05" rx="5.09" ry="6.5"/><polygon class="cls-5" points="93.77 85.33 99.89 83.59 97.52 86.8 93.77 85.33"/><polygon class="cls-5" points="52.04 85.33 45.92 83.59 48.29 86.8 52.04 85.33"/><path class="cls-6" d="M62.94,117.69a13.58,13.58,0,0,0,24.77,0Z" transform="translate(-1.64 -5.53)"/><circle class="cls-7" cx="47.58" cy="101.46" r="5.67"/><circle class="cls-7" cx="97.66" cy="101.46" r="5.67"/><path class="cls-8" d="M38.13,103.49q.24-12.9.48-25.8c.07-4.08,1.07-12.19-5.79-10.13-5.64,1.7-3,11-2.2,15.24a64,64,0,0,0,2.85,10.68C34.38,96,38.17,101,38.13,103.49Z" transform="translate(-1.64 -5.53)"/><path class="cls-9" d="M111.79,103.49q-.24-12.9-.48-25.8c-.07-4.08-1.07-12.19,5.79-10.13,5.64,1.7,3,11,2.2,15.24a64,64,0,0,1-2.85,10.68C115.54,96,111.75,101,111.79,103.49Z" transform="translate(-1.64 -5.53)"/><path class="cls-10" d="M118.64,63c0-16.44-18.45-29.77-43.68-29.77S31.28,46.52,31.28,63c0,4.26-.62,8.31,1.85,12h83.65C119.26,71.26,118.64,67.21,118.64,63Z" transform="translate(-1.64 -5.53)"/></svg>